<svg xmlns="http://www.w3.org/2000/svg" viewBox="0 0 1600 900" role="img" aria-label="Nature Dusk theme background">
  <defs>
    <linearGradient id="bg" x1="0" x2="1" y1="0" y2="1">
      <stop offset="0%" stop-color="#f3fbff"/>
      <stop offset="52%" stop-color="#dfeaf9"/>
      <stop offset="100%" stop-color="#bcd8ee"/>
    </linearGradient>
    <linearGradient id="wave" x1="0" x2="1" y1="0" y2="0">
      <stop offset="0%" stop-color="#0369a1" stop-opacity="0.12"/>
      <stop offset="50%" stop-color="#7dd3fc" stop-opacity="0.38"/>
      <stop offset="100%" stop-color="#0f1720" stop-opacity="0.10"/>
    </linearGradient>
  </defs>
  <rect width="1600" height="900" fill="url(#bg)"/>
  <g opacity="0.9">
    <path d="M0 700 C 260 520, 450 520, 640 650 S 1040 820, 1600 640 L1600 900 L0 900 Z" fill="url(#wave)"/>
    <path d="M0 580 C 250 450, 420 420, 620 540 S 1020 700, 1600 560 L1600 900 L0 900 Z" fill="url(#wave)" opacity="0.7"/>
    <path d="M0 760 C 220 640, 480 620, 720 700 S 1160 820, 1600 720 L1600 900 L0 900 Z" fill="rgba(255,255,255,0.35)"/>
  </g>
  <g opacity="0.16">
    <circle cx="250" cy="220" r="180" fill="#0ea5e9"/>
    <circle cx="1190" cy="280" r="240" fill="#7dd3fc"/>
    <circle cx="1430" cy="700" r="170" fill="#0369a1"/>
  </g>
  <g opacity="0.20" stroke="#0f1720" stroke-width="2" fill="none">
    <path d="M-40 250 L280 120 L520 260 L760 180 L1030 300 L1320 190 L1660 320"/>
    <path d="M-40 360 L300 220 L560 360 L820 290 L1090 410 L1360 300 L1660 420"/>
  </g>
</svg>
